<svg width="185" height="70" viewBox="0 0 185 70" fill="none" xmlns="http://www.w3.org/2000/svg">
<path d="M30.448 44.568C30.448 44.888 30.288 45.208 29.968 45.528C29.776 45.72 29.488 45.848 29.104 45.912C28.72 45.976 28.368 46.008 28.048 46.008C27.6 46.136 27.056 46.2 26.416 46.2C25.776 46.2 25.232 46.2 24.784 46.2C23.888 46.2 23.216 46.232 22.768 46.296C22.32 46.296 21.584 46.36 20.56 46.488L14.8 46.968V48.12C14.8 48.824 14.896 49.528 15.088 50.232C15.28 50.872 15.632 51.544 16.144 52.248C16.464 52.76 16.848 53.24 17.296 53.688C17.744 54.136 18.192 54.424 18.64 54.552C19.024 54.68 19.376 54.808 19.696 54.936C20.016 55.064 20.304 55.192 20.56 55.32C20.88 55.384 21.168 55.384 21.424 55.32C23.152 55.32 24.4 55.128 25.168 54.744C26 54.36 26.992 53.88 28.144 53.304C28.4 53.304 28.656 53.176 28.912 52.92C29.232 52.664 29.456 52.504 29.584 52.44C29.904 52.312 30.352 51.992 30.928 51.48C31.568 50.968 32.048 50.648 32.368 50.52C32.56 50.648 32.624 51.096 32.56 51.864C32.496 52.568 32.528 53.24 32.656 53.88V54.936V56.856C32.336 57.24 32.08 57.528 31.888 57.72C31.76 57.848 31.632 57.976 31.504 58.104C31.44 58.232 31.312 58.392 31.12 58.584C30.928 58.776 30.64 59.064 30.256 59.448C29.104 60.6 27.888 61.368 26.608 61.752C25.904 62.136 25.136 62.424 24.304 62.616C23.472 62.744 22.8 62.904 22.288 63.096C21.968 63.16 21.68 63.192 21.424 63.192C21.168 63.256 20.912 63.288 20.656 63.288H19.888C18.672 63.288 17.488 63.256 16.336 63.192C15.184 63.192 13.968 62.872 12.688 62.232C12.24 62.296 11.6 62.168 10.768 61.848C10 61.528 9.488 61.208 9.232 60.888C8.528 60.504 7.888 60.024 7.312 59.448C6.8 58.872 6.224 58.36 5.584 57.912C4.688 57.272 4.048 56.6 3.664 55.896C3.28 55.192 2.928 54.456 2.608 53.688C2.288 53.112 2 52.472 1.744 51.768C1.488 51.064 1.232 50.36 0.976 49.656C0.976 48.952 0.944 48.28 0.88 47.64C0.88 47 0.88 46.36 0.88 45.72V42.168C0.88 41.016 1.104 39.64 1.552 38.04C2.064 36.44 2.672 35.064 3.376 33.912C3.568 33.656 3.792 33.4 4.048 33.144C4.24 32.888 4.464 32.632 4.72 32.376C5.04 32.12 5.36 31.832 5.68 31.512C5.872 31.448 6.064 31.352 6.256 31.224C6.512 31.096 6.864 30.904 7.312 30.648C7.504 30.52 7.728 30.296 7.984 29.976C8.304 29.656 8.72 29.432 9.232 29.304C9.936 29.048 10.608 28.792 11.248 28.536C11.888 28.216 12.368 28.056 12.688 28.056C13.136 28.056 13.936 28.088 15.088 28.152C16.304 28.216 17.456 28.28 18.544 28.344C19.12 28.408 19.6 28.504 19.984 28.632C20.368 28.76 20.656 28.824 20.848 28.824C21.36 28.888 21.776 28.952 22.096 29.016C22.48 29.08 22.864 29.176 23.248 29.304C24.4 29.688 25.232 30.104 25.744 30.552C26.32 30.936 26.8 31.352 27.184 31.8C27.44 32.12 27.664 32.504 27.856 32.952C28.112 33.336 28.368 33.688 28.624 34.008C28.944 34.392 29.232 34.936 29.488 35.64C29.808 36.28 30.032 36.92 30.16 37.56C30.288 38.072 30.384 38.744 30.448 39.576C30.512 40.408 30.544 41.144 30.544 41.784C30.544 42.424 30.512 42.904 30.448 43.224C30.448 43.544 30.448 43.992 30.448 44.568ZM22.192 39C22.192 38.872 22.192 38.648 22.192 38.328C22.192 37.944 22.128 37.688 22 37.56C21.488 36.728 20.752 36.248 19.792 36.12C18.896 35.928 18.096 35.896 17.392 36.024C16.944 36.152 16.656 36.312 16.528 36.504C16.4 36.696 16.208 36.984 15.952 37.368C15.824 37.496 15.728 37.624 15.664 37.752C15.6 37.88 15.504 38.008 15.376 38.136C15.248 38.264 15.152 38.456 15.088 38.712C15.088 38.904 15.056 39.096 14.992 39.288C14.864 39.608 14.8 39.832 14.8 39.96C14.8 40.088 14.864 40.408 14.992 40.92C15.248 41.048 15.728 41.176 16.432 41.304C17.2 41.368 17.968 41.4 18.736 41.4C19.568 41.4 20.336 41.368 21.04 41.304C21.808 41.176 22.32 41.048 22.576 40.92C22.64 40.856 22.576 40.696 22.384 40.44C22.256 40.12 22.192 39.64 22.192 39Z" fill="#20A8B0"/>
<path d="M60.5538 44.256C60.5978 44.476 60.5978 44.674 60.5538 44.85C60.5098 44.982 60.5098 45.18 60.5538 45.444C60.5538 45.532 60.5538 45.598 60.5538 45.642C60.5538 45.686 60.5098 45.752 60.4218 45.84C60.3338 45.884 60.2678 45.906 60.2238 45.906C60.1798 45.862 60.1138 45.84 60.0258 45.84C59.5418 45.884 59.0798 45.884 58.6398 45.84C58.4198 45.796 58.1998 45.796 57.9798 45.84C57.8038 45.84 57.6058 45.84 57.3858 45.84H54.1518C53.8878 45.84 53.6238 45.84 53.3598 45.84C53.0958 45.796 52.8318 45.774 52.5678 45.774C52.2598 45.774 51.9738 45.796 51.7098 45.84C51.4458 45.84 51.1598 45.84 50.8518 45.84H47.0898C47.0018 45.84 46.8478 45.84 46.6278 45.84C46.4518 45.796 46.2538 45.774 46.0338 45.774H45.2418C45.1538 45.774 45.0438 45.774 44.9118 45.774C44.8238 45.73 44.6698 45.708 44.4498 45.708C44.0978 45.708 43.7458 45.73 43.3938 45.774C43.0858 45.774 42.7338 45.774 42.3378 45.774C42.2498 45.774 42.1178 45.796 41.9418 45.84C41.7658 45.84 41.6118 45.796 41.4798 45.708C41.4358 45.532 41.4138 45.356 41.4138 45.18C41.4578 45.004 41.4798 44.828 41.4798 44.652C41.4798 44.388 41.4578 44.146 41.4138 43.926C41.4138 43.662 41.4138 43.398 41.4138 43.134C41.4138 42.782 41.4138 42.452 41.4138 42.144C41.4578 41.792 41.4798 41.44 41.4798 41.088C41.8318 41 42.1838 40.956 42.5358 40.956C42.8878 40.912 43.2178 40.89 43.5258 40.89H45.0438C45.2638 40.89 45.4178 40.912 45.5058 40.956C45.6378 40.956 45.8138 40.978 46.0338 41.022C46.4738 41.11 46.8918 41.132 47.2878 41.088C47.7278 41.044 48.1678 41.022 48.6078 41.022C49.2238 40.934 49.8398 40.934 50.4558 41.022C51.0718 41.066 51.6438 41.088 52.1718 41.088H54.6138C55.2738 41.088 55.8898 41.11 56.4618 41.154C57.0778 41.154 57.6498 41.154 58.1778 41.154C58.5298 41.154 58.8158 41.154 59.0358 41.154C59.2998 41.11 59.5418 41.11 59.7618 41.154C60.0698 41.154 60.3118 41.198 60.4878 41.286C60.5318 41.506 60.5318 41.682 60.4878 41.814C60.4878 41.902 60.4878 41.99 60.4878 42.078C60.6198 42.826 60.6418 43.552 60.5538 44.256Z" fill="#85E69A"/>
<path d="M87.2924 55.032C87.6124 55.352 88.1564 55.608 88.9244 55.8C89.6924 55.992 90.3964 55.928 91.0364 55.608C91.8044 54.84 92.4124 53.816 92.8604 52.536C92.9884 51.896 93.0204 51.288 92.9564 50.712C92.9564 50.072 92.9244 49.464 92.8604 48.888C93.0524 47.736 92.9564 46.872 92.5724 46.296C92.1884 45.656 91.6764 44.856 91.0364 43.896C90.3964 43.576 89.8844 43.416 89.5004 43.416C89.1164 43.416 88.6044 43.576 87.9644 43.896C87.8364 44.024 87.5164 44.376 87.0044 44.952C86.5564 45.464 86.1404 46.072 85.7564 46.776C85.5644 47.224 85.4684 47.704 85.4684 48.216C85.4684 48.728 85.4684 49.144 85.4684 49.464C85.4684 49.592 85.4044 49.912 85.2764 50.424C85.2124 50.936 85.3084 51.512 85.5644 52.152C85.7564 52.728 86.0444 53.336 86.4284 53.976C86.8764 54.552 87.1644 54.904 87.2924 55.032ZM73.9484 66.648C73.4364 66.648 72.8924 66.68 72.3164 66.744C71.8044 66.808 71.2604 66.808 70.6844 66.744V59.928C70.6844 58.968 70.5884 58.232 70.3964 57.72C70.2044 57.144 70.1404 56.408 70.2044 55.512C70.3324 54.36 70.3644 53.176 70.3004 51.96C70.3004 50.744 70.2684 49.528 70.2044 48.312L70.0124 45.24C70.0124 44.152 69.9804 43.032 69.9164 41.88C69.8524 40.728 69.8204 39.576 69.8204 38.424C69.8204 37.848 69.8204 37.272 69.8204 36.696C69.8844 36.056 69.8524 35.448 69.7244 34.872C69.7244 34.232 69.7564 33.592 69.8204 32.952C69.8844 32.312 69.8204 31.704 69.6284 31.128C69.6284 30.872 69.6284 30.424 69.6284 29.784C69.6284 29.144 69.6284 28.44 69.6284 27.672C69.6924 26.84 69.7244 26.008 69.7244 25.176C69.7884 24.344 69.8524 23.608 69.9164 22.968L70.0124 12.984C70.2684 11.128 70.3964 9.144 70.3964 7.032C70.4604 4.92 70.4924 2.776 70.4924 0.599997C71.1964 0.407995 72.0284 0.311995 72.9884 0.311995C74.0124 0.311995 75.0044 0.407995 75.9644 0.599997C76.2204 0.663996 76.4444 0.695995 76.6364 0.695995C76.8924 0.631996 77.1484 0.631996 77.4044 0.695995C77.4684 0.695995 77.5644 0.727997 77.6924 0.792C77.9484 0.919998 78.0764 1.112 78.0764 1.368C78.2044 2.648 78.2044 3.928 78.0764 5.20799C78.0124 6.424 78.0444 7.672 78.1724 8.952C78.2364 10.04 78.2364 11.064 78.1724 12.024C78.1724 12.984 78.1724 14.04 78.1724 15.192C78.1084 16.28 78.1084 17.144 78.1724 17.784C78.2364 18.424 78.2364 19.288 78.1724 20.376L78.0764 22.68V26.424C78.0764 26.936 78.0764 27.864 78.0764 29.208C78.1404 30.488 78.1724 31.768 78.1724 33.048C78.1724 34.392 78.1724 35.576 78.1724 36.6C78.1724 37.624 78.1404 38.392 78.0764 38.904C78.3964 38.584 78.5884 38.328 78.6524 38.136C78.7804 37.88 78.9724 37.752 79.2284 37.752C79.8684 37.112 80.5084 36.408 81.1484 35.64C81.8524 34.872 82.6524 34.328 83.5484 34.008C84.2524 33.688 84.7964 33.528 85.1804 33.528C85.5644 33.464 86.0444 33.432 86.6204 33.432C87.9004 33.112 89.2444 32.952 90.6524 32.952C92.1244 32.952 93.4684 33.112 94.6844 33.432C98.9084 35.096 101.596 37.752 102.748 41.4C103.068 42.04 103.356 42.68 103.612 43.32C103.868 43.896 103.996 44.504 103.996 45.144C104.316 46.36 104.508 47.48 104.572 48.504C104.636 49.528 104.668 50.68 104.668 51.96C104.668 52.664 104.636 53.4 104.572 54.168C104.508 54.872 104.38 55.544 104.188 56.184C104.06 56.632 103.868 57.176 103.612 57.816C103.356 58.456 103.164 58.968 103.036 59.352C102.524 60.696 101.948 61.816 101.308 62.712C100.668 63.544 99.7084 64.472 98.4284 65.496C98.1084 65.816 97.7884 66.104 97.4684 66.36C97.2124 66.616 96.9244 66.744 96.6044 66.744C95.9644 67.384 95.2284 67.864 94.3964 68.184C93.6284 68.504 92.9244 68.664 92.2844 68.664H89.7884C88.7644 68.472 87.8044 68.248 86.9084 67.992C86.0124 67.736 85.1164 67.288 84.2204 66.648C84.0924 66.584 83.7724 66.392 83.2604 66.072C82.8124 65.816 82.3324 65.496 81.8204 65.112C81.3084 64.728 80.7964 64.28 80.2844 63.768C79.7724 63.32 79.4204 62.872 79.2284 62.424C79.2284 62.296 79.1324 62.2 78.9404 62.136C78.8124 62.008 78.6844 61.88 78.5564 61.752C78.4924 62.392 78.4284 63.16 78.3644 64.056C78.3644 64.952 78.3644 65.848 78.3644 66.744L73.9484 66.648Z" fill="#24FF00"/>
<path d="M123.043 28.152C123.491 28.024 124.035 27.832 124.675 27.576C125.315 27.32 125.955 27.192 126.595 27.192C127.427 27.192 128.195 27.192 128.899 27.192C129.603 27.128 130.371 27.096 131.203 27.096C131.843 27.096 132.451 27.128 133.027 27.192C133.667 27.192 134.243 27.288 134.755 27.48C134.883 27.48 135.043 27.512 135.235 27.576C135.427 27.64 135.683 27.832 136.003 28.152C136.643 28.344 137.251 28.664 137.827 29.112C138.403 29.56 138.915 30.104 139.363 30.744C139.875 31.384 140.323 32.056 140.707 32.76C141.155 33.4 141.539 34.04 141.859 34.68C142.179 35.192 142.371 35.864 142.435 36.696C142.563 37.528 142.723 38.2 142.915 38.712C142.915 39.608 142.947 40.472 143.011 41.304C143.139 42.136 143.203 43 143.203 43.896C143.203 45.368 143.171 46.776 143.107 48.12C143.043 49.464 143.011 50.872 143.011 52.344L142.819 55.512C142.819 55.768 142.691 56.216 142.435 56.856C142.179 57.496 142.019 57.976 141.955 58.296C141.763 58.936 141.507 59.704 141.187 60.6C140.867 61.432 140.643 61.912 140.515 62.04C140.195 62.36 139.971 62.648 139.843 62.904C139.715 63.16 139.587 63.416 139.459 63.672C139.395 63.928 139.267 64.152 139.075 64.344C138.947 64.536 138.691 64.728 138.307 64.92C137.987 65.048 137.603 65.24 137.155 65.496C136.707 65.816 136.291 66.104 135.907 66.36C135.587 66.488 135.427 66.584 135.427 66.648C135.427 66.776 135.203 66.904 134.755 67.032L133.027 67.416C132.259 67.544 131.619 67.576 131.107 67.512C130.659 67.448 130.147 67.416 129.571 67.416C127.779 67.416 125.987 67.064 124.195 66.36C123.619 66.36 123.043 66.232 122.467 65.976C121.955 65.72 121.571 65.432 121.315 65.112C120.995 64.856 120.675 64.568 120.355 64.248C120.035 63.992 119.715 63.704 119.395 63.384C118.883 62.808 118.467 62.232 118.147 61.656C117.827 61.08 117.507 60.472 117.187 59.832C116.867 59.128 116.515 58.424 116.131 57.72C115.747 56.952 115.491 56.12 115.363 55.224C115.235 53.752 115.107 52.408 114.979 51.192C114.915 49.976 114.883 48.76 114.883 47.544V43.608C114.819 43.48 114.787 43.224 114.787 42.84C114.787 42.456 114.819 42.2 114.883 42.072C114.883 41.752 114.883 41.432 114.883 41.112C114.947 40.728 115.011 40.376 115.075 40.056C115.139 39.544 115.171 39.032 115.171 38.52C115.171 38.008 115.331 37.496 115.651 36.984C115.587 37.112 115.619 37.016 115.747 36.696C115.939 36.312 116.131 35.928 116.323 35.544C116.515 35.096 116.675 34.712 116.803 34.392C116.931 34.072 116.995 33.944 116.995 34.008L117.667 32.76C117.859 32.568 118.051 32.344 118.243 32.088C118.435 31.832 118.691 31.544 119.011 31.224C119.395 30.904 119.875 30.488 120.451 29.976C121.091 29.464 121.955 28.856 123.043 28.152ZM130.051 44.088C129.795 44.088 129.539 44.216 129.283 44.472C129.091 44.728 128.963 44.952 128.899 45.144C128.451 46.104 128.227 46.904 128.227 47.544C128.227 49.272 128.835 50.424 130.051 51C130.371 51 130.627 50.904 130.819 50.712C131.075 50.456 131.203 50.2 131.203 49.944C131.203 49.304 131.267 48.568 131.395 47.736C131.587 46.904 131.523 46.04 131.203 45.144C130.883 44.824 130.691 44.568 130.627 44.376C130.563 44.184 130.371 44.088 130.051 44.088Z" fill="#F30DA5"/>
<path d="M173.464 60.6C173.464 61.304 173.432 62.04 173.368 62.808C173.368 63.576 173.4 64.312 173.464 65.016C173.464 65.4 173.464 65.944 173.464 66.648C173.464 67.416 173.432 67.992 173.368 68.376C173.432 68.632 173.368 68.856 173.176 69.048C172.984 69.304 172.824 69.496 172.696 69.624H170.2C169.88 69.624 169.496 69.592 169.048 69.528C168.664 69.528 168.312 69.528 167.992 69.528C167.736 69.656 167.384 69.72 166.936 69.72C166.488 69.72 166.008 69.72 165.496 69.72C165.048 69.72 164.6 69.688 164.152 69.624C163.768 69.624 163.544 69.624 163.48 69.624C163.16 69.304 162.968 69.08 162.904 68.952C162.904 68.888 162.904 68.696 162.904 68.376V59.16L162.712 53.496L162.904 47.064L162.808 41.496L162.424 36.888C161.656 36.888 160.728 36.92 159.64 36.984C158.552 37.048 157.72 37.016 157.144 36.888C156.056 36.696 155.192 36.664 154.552 36.792C153.976 36.856 153.24 36.888 152.344 36.888V30.744H152.92C153.24 30.744 153.496 30.744 153.688 30.744C153.944 30.68 154.136 30.68 154.264 30.744C154.584 31 155.032 31.096 155.608 31.032C156.248 30.904 156.536 30.776 156.472 30.648C157.176 30.584 157.592 30.552 157.72 30.552C157.912 30.552 158.296 30.552 158.872 30.552C159.384 30.552 160.12 30.584 161.08 30.648C162.104 30.648 162.776 30.616 163.096 30.552C163.096 30.552 163.096 30.36 163.096 29.976C163.096 29.592 163.096 29.144 163.096 28.632C163.096 28.12 163.096 27.576 163.096 27C163.096 26.424 163.096 25.976 163.096 25.656C163.224 24.44 163.288 23.352 163.288 22.392C163.352 21.368 163.416 20.216 163.48 18.936C163.544 18.04 163.576 17.176 163.576 16.344C163.576 15.512 163.576 14.648 163.576 13.752C163.576 12.856 163.608 11.768 163.672 10.488C163.8 9.144 163.832 7.96 163.768 6.936C163.768 6.616 163.704 6.424 163.576 6.36C163.512 6.232 163.48 6.008 163.48 5.688C163.48 5.368 163.512 5.144 163.576 5.016C163.64 4.824 163.832 4.72799 164.152 4.72799C164.728 4.72799 165.336 4.76 165.976 4.824C166.616 4.888 167.224 4.92 167.8 4.92C168.76 4.92 169.624 4.92 170.392 4.92C171.224 4.92 171.896 4.952 172.408 5.016C173.368 5.144 174.104 5.272 174.616 5.4C174.616 5.4 174.616 5.56 174.616 5.88C174.616 6.136 174.616 6.488 174.616 6.936C174.616 7.32 174.584 7.736 174.52 8.184C174.52 8.632 174.52 9.048 174.52 9.432C174.456 11.032 174.424 12.44 174.424 13.656C174.424 14.808 174.456 16.184 174.52 17.784C174.52 18.488 174.488 19.224 174.424 19.992C174.424 20.76 174.456 21.496 174.52 22.2C174.52 22.392 174.488 22.808 174.424 23.448C174.424 24.088 174.392 24.792 174.328 25.56C174.264 26.264 174.2 26.936 174.136 27.576C174.072 28.216 174.04 28.632 174.04 28.824C174.04 29.144 174.104 29.432 174.232 29.688C174.36 29.944 174.488 30.072 174.616 30.072C174.936 30.072 175.352 30.136 175.864 30.264C176.376 30.328 176.792 30.36 177.112 30.36C177.432 30.36 177.752 30.424 178.072 30.552C178.456 30.616 178.968 30.648 179.608 30.648C180.184 30.648 180.76 30.68 181.336 30.744C181.976 30.744 182.648 30.744 183.352 30.744C183.48 30.744 183.608 30.776 183.736 30.84C183.864 30.84 183.992 30.84 184.12 30.84H184.504C184.824 31.8 184.984 32.888 184.984 34.104C184.984 35.32 184.824 36.248 184.504 36.888H183.928C182.648 37.016 181.4 37.144 180.184 37.272C178.968 37.336 177.72 37.368 176.44 37.368C176.12 37.368 175.736 37.4 175.288 37.464C174.84 37.464 174.456 37.464 174.136 37.464C174.136 37.592 174.104 37.752 174.04 37.944C174.04 38.072 174.04 38.2 174.04 38.328V38.712V39.576C174.04 40.152 174.04 40.696 174.04 41.208C174.104 41.656 174.104 42.136 174.04 42.648L174.232 47.736L173.848 52.056C173.848 52.376 173.816 52.952 173.752 53.784C173.752 54.552 173.72 55.416 173.656 56.376C173.656 57.272 173.624 58.136 173.56 58.968C173.496 59.736 173.464 60.28 173.464 60.6Z" fill="#52B0F4"/>
</svg>
